<?xml version="1.0" encoding="utf-8"?>
<!-- Generator: Adobe Illustrator 19.0.0, SVG Export Plug-In . SVG Version: 6.00 Build 0)  -->
<svg version="1.1" id="图层_1" xmlns="http://www.w3.org/2000/svg" xmlns:xlink="http://www.w3.org/1999/xlink" x="0px" y="0px"
	 viewBox="0 0 800 128.2" style="enable-background:new 0 0 800 128.2;" xml:space="preserve">
<style type="text/css">
	.st0{fill:#fff;}
</style>
<g id="XMLID_41_">
	<polygon id="XMLID_692_" class="st0" points="122,0 122,0.3 57.2,128.1 82.9,128.1 121.7,51.3 149.7,106.1 121.7,106.1
		110.8,128.1 160.6,128.1 186.1,128.1 186.3,128.1 122,0.3 	"/>
	<polygon id="XMLID_691_" class="st0" points="103.3,20.1 114.1,0.1 89.4,0.1 86.5,0.1 64.5,0.1 0,128.1 24.8,128.1 78.5,20.1 	"/>
	<polygon id="XMLID_690_" class="st0" points="240.4,0.1 221.8,0.1 207.7,37.1 226.3,37.1 	"/>
	<polygon id="XMLID_689_" class="st0" points="274,103.1 276.4,98.1 299.9,98.1 304.8,87.1 279,87.1 279,81.1 263,81.1 263,87.1
		242.2,87.1 237.3,98.1 257.8,98.1 241.1,128.1 259.7,128.1 271.3,108.4 282.7,128.1 301.4,128.1 287.2,103.1 	"/>
	<polygon id="XMLID_688_" class="st0" points="238,41.1 219.3,41.1 205.2,79.1 215,79.1 215,128.1 231,128.1 231,77.1 224.1,77.1
		"/>
	<path id="XMLID_682_" class="st0" d="M234.4,37.1h5.6v8.4v12.4v8.9v10.9v1.4h62v-1.3l0,0V35.7v-10v-2.6h-7.4l2.3-6h0l4.9-12h-18.7
		h-13.6l-4.9,12h13.5l-2.3,6h-17.5l8.8-23h-18.7L234.4,37.1z M255,35.1h9v10h-9V35.1z M255,58.1h9v8h-9V58.1z M277,58.1h9v8h-9V58.1
		z M286,45.1h-9v-10h9V45.1z"/>
	<rect id="XMLID_681_" x="308" y="4.1" class="st0" width="26" height="13"/>
	<polygon id="XMLID_680_" class="st0" points="306,46.1 313,46.1 313,115.1 303.2,115.1 310.7,128.1 313.7,128.1 326.5,128.1
		329,128.1 329,46.1 337,46.1 337,33.1 306,33.1 	"/>
	<polygon id="XMLID_679_" class="st0" points="608.6,33.1 600.8,6.1 582.1,6.1 589.9,33.1 	"/>
	<polygon id="XMLID_678_" class="st0" points="608.6,75.1 600.8,46.1 582.1,46.1 589.9,75.1 	"/>
	<polygon id="XMLID_677_" class="st0" points="557,17.4 538,19 538,33.1 519,33.1 519,46.1 538,46.1 538,128.2 557,126.1 557,46.1
		573,46.1 573,33.1 557,33.1 	"/>
	<polygon id="XMLID_52_" class="st0" points="635,1.1 615,1.1 615,88.1 579,88.1 579,101.1 615,101.1 615,128.2 635,126.1
		635,101.1 640.4,101.1 645.4,88.1 635,88.1 	"/>
	<polygon id="XMLID_51_" class="st0" points="519,17.4 573,12.8 573,0.4 519,4.9 	"/>
	<polygon id="XMLID_50_" class="st0" points="516.6,120.1 532.1,120.1 535.3,53.1 519.7,53.1 	"/>
	<rect id="XMLID_49_" x="561" y="53.1" class="st0" width="12" height="41"/>
	<polygon id="XMLID_48_" class="st0" points="703,0.8 684,3.7 684,22.1 672,22.1 672,35.1 684,35.1 684,70.1 672,74.8 672,90.3
		684,85.6 684,115.1 673,115.1 680.5,128.1 703,128.1 703,120.3 703,115.3 703,78.6 712,74.8 712,59.3 703,63 703,35.1 714,35.1
		714,22.1 703,22.1 	"/>
	<polygon id="XMLID_47_" class="st0" points="746,35.1 766,35.1 766,28.1 798,28.2 798,15.8 766,15.7 766,0.3 746,3.4 746,15.7
		718,15.6 718,28 746,28.1 	"/>
	<polygon id="XMLID_46_" class="st0" points="800,128.1 767.3,89 795,55.2 795,50.5 795,37.1 772.7,37.1 718,37.1 718,50.1
		773,50.1 773,55.2 756.1,75.2 739.2,55.1 717.4,55.1 745.2,88.5 713.1,128.1 734.9,128.1 756.3,102.2 778.2,128.1 	"/>
	<polygon id="XMLID_45_" class="st0" points="361,17.1 483.5,17.1 488.6,4.1 361,4.1 	"/>
	<path id="XMLID_42_" class="st0" d="M463.6,50.1h-71.9h-2l17.4-31h-21.3l-29.1,53H373v56h17.3h1.4h71.9h3.5H483v-78h-18.1H463.6z
		 M393,115.1v-52h71v52H393z"/>
</g>
</svg>
